<svg id="Base" xmlns="http://www.w3.org/2000/svg" viewBox="0 0 858.76 483.81"><defs><style>.cls-1{fill:#fff;}</style></defs><title>cssalogo</title><path class="cls-1" d="M165.8,418.44c4.21-3.48,7.63-7.74,11.34-11.68q25-26.52,49.85-53.18c2-2.1,4.06-2.7,6.91-2.69,35.09.06,70.18,0,105.27-.07.5,0,1,.08,1.83.15v90.27H147.32c-.65-1,.21-2.25.67-2.61,3.52-2.74,2.17-6,1.46-9.36-2.83-13.44-6-26.84-8.11-40.41-3.68-24.36-6-48.86-5.7-73.57.27-19.75,1.93-39.32,7.24-58.4,5.06-18.18,15.11-33.4,28.86-46.17,19.87-18.46,43.91-29,69.78-35.86,21-5.55,42.33-8.28,64-9.28a258.71,258.71,0,0,1,35.63.47V345.23H328.06c-6.24,0-12.49-.17-18.72.07-3.17.12-4-.92-4-4,.1-26.21-.13-52.43.13-78.64a48.34,48.34,0,0,0-4-20.57c-8.89-20-21.68-36.64-40.82-48a12,12,0,0,0-9.92-1.39c-20,5.4-39.61,11.93-56.77,24.08S164,244.29,159,265a200.68,200.68,0,0,0-5.29,40.58,383.69,383.69,0,0,0,1.14,40.71c1.13,15.73,2.94,31.43,5.62,47,1.16,6.71,2.15,13.46,3.27,20.18C164,415.11,164.13,416.89,165.8,418.44Z" transform="translate(-135.6 -165.19)"/><path class="cls-1" d="M965.19,418.85q4.83-24.14,7.58-48.32c1.64-14.21,2.92-28.46,3.35-42.8a316.17,316.17,0,0,0-.92-38.45c-2.28-25.11-9.75-47.82-29.7-64.9a126.58,126.58,0,0,0-36.61-21.86,289.32,289.32,0,0,0-30.68-9.91c-3.38-.91-6-.05-8.8,1.59-19.85,11.75-33,29.1-41.78,50.06a40.36,40.36,0,0,0-3.09,16.28c.17,26.95.08,53.91.06,80.87,0,1.22.31,2.48-.43,3.9H788.93V166.15a224.7,224.7,0,0,1,33.12-.56c10.82.53,21.65,1.07,32.33,2.61,17.49,2.52,34.75,6.16,51.49,12.2s32.18,13.67,45.89,24.79c19.87,16.1,32.93,36.4,37.81,61.8a277.86,277.86,0,0,1,4.66,44c.6,19.72-.84,39.28-3.11,58.84-2.38,20.59-6.43,40.87-10.81,61.1-.79,3.64-.82,3.64,2.78,10.35H788.76V351.88c4.06-1.94,8.12-.44,12.13-.44,30.09,0,60.2.38,90.28-.28,7.49-.17,12,2.43,16.62,7.46,14.05,15.33,28.37,30.42,42.58,45.6,4,4.27,8,8.57,12,12.78C963.09,417.74,963.52,419.05,965.19,418.85Z" transform="translate(-135.6 -165.19)"/><path class="cls-1" d="M153,649V470.8H141.36V447.65H341.11v28.29H328.92q-36.9,0-73.78-.08c-8.49,0-17,.13-25.45-.4-8-.51-14.21,2.79-19.85,7.81a40.5,40.5,0,0,0-7,7.78c-2.95,4.45-2.8,9,.53,13.07,6.58,8.07,14.66,13.38,25.34,14.59,9.57,1.08,14.07-4.65,13.63-12.15a8,8,0,0,0-3.22-6c-2.44-2-2.42-4.51,0-6.48a7.3,7.3,0,0,1,7.39-1.38c7.42,2.93,13.24,9.05,12,18.67-1.83,14.94-11.68,21.69-24.46,25.82-7.69,2.49-15.8,3.13-23.69,4.73-16.42,3.32-28.58,12.36-35.65,27.79a8.67,8.67,0,0,0-.42,4.42c1,12.71.2,25.43.36,38.15,0,2.62.52,4,3.51,4.35s9.39,8.7,9.39,11.74c0,4.25,0,8.49,0,12.73,0,4.9-2.8,7.83-7.7,7.86C171.25,649,162.52,649,153,649Z" transform="translate(-135.6 -165.19)"/><path class="cls-1" d="M988.82,447.85v22.81H977V649c-10,0-19.46.07-28.91,0-2.68,0-5.81-3.78-5.84-6.57,0-3.5.25-7-.08-10.48a11.85,11.85,0,0,1,4.46-11.13c2.54-2.13,4.26-5.45,8.24-3.85,1.13-2.35.56-4.37.56-6.33,0-11.73-.14-23.47.12-35.2a19.6,19.6,0,0,0-3.47-11.54c-9-13.73-21.93-20.62-38-22.74-10.39-1.38-20.71-3.2-29.92-8.92-10.46-6.49-14.47-18.48-12.39-27.81,1.52-6.85,10.57-13.16,16-11.52,5,1.5,6.11,4.86,2.84,8.82-3.69,4.46-4.09,8-1.41,12.61,2,3.38,7.76,5.72,12,5a40.33,40.33,0,0,0,24.63-14.17c4-4.77,4.41-9.56.72-14.57a39.85,39.85,0,0,0-16.81-13.71,13.63,13.63,0,0,0-5.45-.94q-56,.06-112,.08h-3.53V447.85Z" transform="translate(-135.6 -165.19)"/><path class="cls-1" d="M650.55,470.17l44-111.74h27.36q6.76,17.1,13.52,34.2,14.3,36.31,28.55,72.64c2.07,5.26,2.1,5.12-3.42,4.91a132.25,132.25,0,0,0-14.22.06c-3.19.22-4.51-1-5.56-3.87-3.15-8.62-6.68-17.09-9.93-25.67-.82-2.15-1.89-3-4.32-3q-18.72.21-37.44,0c-2.54,0-3.71.72-4.57,3.12-3.2,9-6.64,17.89-10,26.82-.47,1.26-.71,2.58-2.62,2.55C665,470.12,658,470.17,650.55,470.17Zm39.26-46.86c4.55.91,32.55.67,35.45-.41-3-7.82-6-15.68-9.16-23.46s-4.87-15.83-8.83-23.26C702.51,392.52,695.61,407.7,689.81,423.31Z" transform="translate(-135.6 -165.19)"/><path class="cls-1" d="M471.56,450.59c13.4,5.4,26.69,8.05,40.56,5.79,5.68-.92,11-3,14.7-7.94,4.16-5.58,3.14-13.33-1.84-18.21-6.36-6.21-14.53-8.47-22.51-11.26-8.71-3.05-17.14-6.61-24.26-12.73-12-10.32-12-27.79,0-38.22,6.47-5.62,14.17-8.62,22.42-10.25,14.92-2.93,29.61-1.57,44.06,2.93a12,12,0,0,1,2,1.05c-1.72,4.64-3.4,9.15-5.19,14-4.46-.83-8.5-2.79-12.89-3.49-9.55-1.52-19.08-2.45-28.14,1.83-4.63,2.19-8.43,5.56-8.77,11.2s2.68,9.36,7.14,12.23c7.16,4.61,15.38,6.71,23.2,9.74,7.67,3,15.13,6.28,21.3,11.91a27.08,27.08,0,0,1,.27,39.78c-8.38,8-18.81,11-29.75,12.37a97.39,97.39,0,0,1-43.4-4.32c-2.8-.93-4.27-1.88-2.67-5.25S470.25,454.5,471.56,450.59Z" transform="translate(-135.6 -165.19)"/><path class="cls-1" d="M560.14,465l4.91-14.34c6.26,2.31,12.27,4.57,18.64,5.43,10.77,1.45,21.33,2.24,31.6-3.21,8.58-4.54,11.13-17.1,1.38-24.44-6.19-4.66-13.47-7.08-20.76-9.47-8.29-2.7-16.24-6.22-23.13-11.71-16-12.78-11.87-32.89,3-42.28,11.61-7.34,24.51-9,37.8-8.59a77.69,77.69,0,0,1,26.7,5.21c-1.78,4.76-3.51,9.36-5.36,14.31-5.82-1.77-11.39-3.73-17.29-4.35-9.07-1-18-1.06-26.19,3.8-7.62,4.51-9.13,15.22-.09,21.49,7.25,5,15.7,7.19,23.79,10.23a80.71,80.71,0,0,1,20,10.59c14.66,10.91,14,33.58-1.79,44.54-8.1,5.62-17.28,8.05-26.84,9.22a99.71,99.71,0,0,1-38-3A24.87,24.87,0,0,1,560.14,465Z" transform="translate(-135.6 -165.19)"/><path class="cls-1" d="M452,453.26c1.29,4.75,2.5,9.25,3.78,13.94A65.33,65.33,0,0,1,436,471.29c-6,.36-11.9,1.37-17.89.91-16.4-1.27-32.22-4.26-45.34-15.24-13.66-11.43-18.7-26.5-18.17-43.77.95-30.7,21.65-48,47.29-54.05,16.21-3.84,32.51-3.5,48.77,0a24.06,24.06,0,0,1,2.88.79c.8.27,1.57.65,2.77,1.15-1.54,4.71-3.06,9.33-4.64,14.16-9.5-2.85-18.75-4.69-28.26-4.09-14.28.91-27.5,4.54-36.89,16.41-8,10.11-9.61,21.93-8.11,34.25,1.24,10.2,5.52,19,13.87,25.46,9.11,7,19.74,9.49,31,9.89A87.63,87.63,0,0,0,452,453.26Z" transform="translate(-135.6 -165.19)"/><path class="cls-1" d="M599.75,272.58c-2.09-3.68-4.14-7.08-6-10.6-1.07-2.07-1.72-4.45,1-5.8s4.65,0,5.58,2.59c1.69,4.71,6.16,8.26,5.57,13.86a11.23,11.23,0,0,0,4.72.12c.82-2.92.41-5.91.4-8.86,0-2.76.41-5.45.66-8.17.19-2.11,1.3-3.41,3.22-3.4s3.24,1.22,3.68,3.46c.81,4.1.36,8.18.35,12.27,0,6.26.27,6.4,6.81,5-2.11-5.67,1.11-10.07,3.84-14.4,1.82-2.89,2.38-4.57-1.52-6-2-.72-3.81-2.34-5.49-3.79-2.4-2.07-2.74-5.64-.69-7.22,2.48-1.91,4.6-1,6.44,1.24,2.8,3.36,6.22,5.22,11.18,4.28-.56-3.61-2.92-6-5.19-8.28-2.71-2.77-6.2-4.47-9.52-6.4-1.76-1-4.23-2-3-4.72s3.79-2.35,6.14-1.46a38.13,38.13,0,0,1,16.2,12.15c.63.78,1.1,2,2.18,1.42a2.46,2.46,0,0,0,.9-3.12c-1.83-5.59-5.82-9.09-10.76-11.84-5.27-2.92-5.24-3-4.71-8.73H618.74c-.22,8.53-1.23,16.91-.93,25.34a13.31,13.31,0,0,1-1.15,6.15c-1.13,2.44-2.65,2.82-4.53.68-1.6-1.83-1.8-4-1.64-6.28.55-8.33.62-16.66.48-25.23a138.93,138.93,0,0,0-23.94-.29,62.32,62.32,0,0,1-7.48.17c-2.28-.1-4.3-1.08-4.42-3.65s2.17-3.24,4-3.66a27.55,27.55,0,0,1,6-.35c8.46,0,16.91,0,25.62,0v-7.47c-3.3-.63-6.68-1.17-10-1.91-10.3-2.27-12.33-10.25-12.07-19a4.76,4.76,0,0,1,3.17-4.3c2.33-.9,4-.68,4.52,2.3a10.42,10.42,0,0,1-.06,3.3c-.89,5.73,4.36,11.3,9.6,11.51,4.71.19,9.45.48,14.17-.47,8.22-1.64,11.35-5.19,11.17-13.27-.06-2.45,0-4.6,3.15-4.85s3.79,1.89,4.26,4.19c2.08,10.25-2.32,17.39-12.47,20.28-.59.17-1.21.24-1.81.38-6.47,1.49-6.47,1.49-5.39,8.82h26c2.25,0,4.49,0,6.74,0s4.09.3,4.28,3c.22,2.94-1.88,3.26-4,3.78-4.28,1-8.64.5-12.94.82-.51,1.8,1,1.82,1.81,2.4,6.46,4.59,12.71,9.36,14.11,17.9.72,4.41.58,8.7-2.47,12.38a4.84,4.84,0,0,0-1,4.33A285.09,285.09,0,0,1,655.07,309c-.24,6.57-.13,13.21-1.23,19.76a6.94,6.94,0,0,1-1.24,3.44,4.58,4.58,0,0,1-4.79,1.36c-1.82-.38-1.69-2.06-1.67-3.34.1-5.61.47-11.22.5-16.83.07-16.21.13-32.42-1.17-48.6-.1-1.24-.46-2.44-.66-3.67-1.21-7.38-1.2-7.38-9.14-6.4,2,3.66-.18,6.58-1.62,9.62s-3,5.85-4.57,8.92c2.59.8,4.71.36,6.79.46s4.67.28,4.62,3.09c0,2.66-2.24,3.69-4.75,3.71-5,0-10,0-15,0-.61,0-1.21.09-2,.15-.68,2.66-.39,5.29-.26,7.83.68,13.72.23,27.44.38,41.17a7.4,7.4,0,0,1,0,1.49c-.47,2.48-.88,5.42-4.11,5.28s-3.29-3.12-3.31-5.43c-.16-15-.17-29.94-.24-44.92,0-5.58,0-5.58-5.46-5.56-3,0-6,0-9,0-1.9,0-3.94-.11-4.09-2.72-.12-2.26.73-3.84,3.27-4.16A20.65,20.65,0,0,0,599.75,272.58Z" transform="translate(-135.6 -165.19)"/><path class="cls-1" d="M417.73,209.67c-9.08,0-17.54-.13-26,.05-4.47.09-8.94,1-13.4,1-3.37,0-4,1.38-3.83,4.25.81,17.46.51,34.93.48,52.39,0,16.09-2.13,32-4.58,47.85a25.68,25.68,0,0,1-2.81,8c-.67,1.26-1.59,2.37-3.16,2.15a3.19,3.19,0,0,1-2.77-3.08,15.86,15.86,0,0,1,0-4.46c4.71-25.29,6.18-50.8,6-76.48-.07-9.85-.09-19.7-.18-29.55a117.1,117.1,0,0,0-1.4-16,13.42,13.42,0,0,1-.11-2.61c.17-2.71.48-5.55,4-5.61s3.06,3,3.4,5.17a46.66,46.66,0,0,1,.82,10.74L417.67,201c0-6.51.2-12.82.74-19.11a15.55,15.55,0,0,1,1.88-6.72c1-1.72,2.6-2.52,4.44-1.77s2.18,2.5,1.87,4.39c-.46,2.8-.84,5.61-1.34,9.09,5.71-1.18,11-1.86,15.53-5.12,1.91-1.39,3.66-3,5.48-4.51,1.25-1,2.62-1.67,4-.39a2.92,2.92,0,0,1,.29,4.35c-4.71,5.92-10.5,10.16-18.1,11.57-.84.16-1.7.28-2.53.48-5.68,1.38-5.68,1.38-4.51,7.6h13.95c2,0,4,.07,6,.08s3.88.27,3.83,2.91a3.67,3.67,0,0,1-3.63,4,52.78,52.78,0,0,1-8.05.11c-4-.29-7.88.83-12.33.65a98,98,0,0,0,5.75,26.17c5.38-5.72,5.53-16.06,16.18-15,.77,2.54-.28,4.28-1.78,5.85-4,4.21-6.43,9.36-8.62,14.66-1.2,2.89-.45,5.24,1.26,7.6,4.32,5.92,8.59,11.86,14,16.86.27.25.52.54.78.8,1.8,1.77,2.75,4.21,1,5.94s-4.51,1.26-6.34-.73c-3.38-3.65-6.63-7.42-9.92-11.16-1.11-1.27-2.18-2.59-3.44-4.1-1.73,3-1.22,5.86-1.36,8.63-.86,17.5,1.94,34.19,11.22,49.4a102,102,0,0,0,9.18,12.21,66.06,66.06,0,0,1,4.08,5.34c1.08,1.57,2,3.41.4,5.1s-3.49,1.55-5.5.61c-3.42-1.6-5.56-4.54-7.79-7.34-12-15-17.53-32.24-18.49-51.31-.49-9.75-.65-19.36,1.53-28.93a9.31,9.31,0,0,0-.9-6.85c-5.11-9.14-7.14-19.15-8-29.47a12.57,12.57,0,0,0-.28-1.84A13.44,13.44,0,0,0,417.73,209.67Z" transform="translate(-135.6 -165.19)"/><path class="cls-1" d="M709.29,248.64c0-4.3,0-8.49,0-12.68,0-1.16-.67-1.59-1.81-2a33.22,33.22,0,0,1-7.16-2.92c-4.15-2.52-7.15-5.91-7.08-11.27,0-3.33-.34-6.67-.54-10.14-6.21.38-12.11.9-18,1.06-3.94.1-5.38-1.75-4.56-4.89.51-1.91,1.78-2.45,3.55-2.66,9-1.1,18.14-.83,27.18-1.6,14.67-1.24,29.4.11,44.08-1.11a22.19,22.19,0,0,1,11,1.53c1.64.74,3.26,1.78,2.67,3.92-.51,1.85-1.93,2.7-4,2.69-7.47-.07-14.94,0-22.63,0-.6,4.67-.58,9.23-1.54,13.73-1.23,5.81-4.5,9.29-9.95,10.8-2.72.76-3.84,2-3.61,4.92.26,3.45.06,6.94.06,10.65a43,43,0,0,0,13.82-3c4.09-1.69,5.89-5.27,6.88-9.2a41.8,41.8,0,0,0,1.6-13.27,10.65,10.65,0,0,1,.42-4.06c.56-1.8,1.13-3.37,3.44-3.11,2,.22,3.43,1.42,3.48,3.32.49,18-1,27.89-18.9,35.5a30.15,30.15,0,0,1-7.6,1.67c-2.06.28-2.77,1.26-2.71,3.21.07,2.73,0,5.46,0,7.93,1.42,1.21,2.72.75,3.91.78,11.09.36,22.2-.76,33.26.76a20.22,20.22,0,0,1,2.92.49c1.65.5,2.89,1.41,2.88,3.4a3.62,3.62,0,0,1-2.62,3.66,12,12,0,0,1-4.37.78q-16.29-.11-32.58-.12c-.86,0-1.71.15-2.78.24A249.1,249.1,0,0,0,718,311c.47,7.84-.44,15.72.84,23.52a1.53,1.53,0,0,1,0,.37c-.18,3.46-2.72,7.44-4.63,6.85-3.2-1-3.24-4.08-3.41-6.79-1.19-18.93-.71-37.9-.84-56.84-1.24-1.09-2.68-.6-4-.61-10.11,0-20.23,0-30.34,0-2,0-4.15.09-5.15-2.15-1.24-2.78.79-5.25,4.59-5.4,7.85-.32,15.71-.52,23.56-.71,3.36-.08,6.72,0,10.19,0a32.75,32.75,0,0,0,.91-6.89c0-5.67,0-5.45-5.74-5.84-10.49-.73-19.5-4.3-23.77-14.86a33.24,33.24,0,0,1-1.77-17.19c.3-2.18,1.38-3.34,3.71-3.24s3.15,1.58,3.13,3.72c0,1.75.14,3.51,0,5.24-.94,10,7,16.18,15,18C703.13,248.84,706.23,249.56,709.29,248.64Zm-8.93-39.55c-.17,6.46-1.54,13,5.15,16.28,4.68,2.33,10.18,3.45,14.77-.06,5.43-4.14,5.28-10.07,3.58-16.22Z" transform="translate(-135.6 -165.19)"/><path class="cls-1" d="M396.32,263.53a37.65,37.65,0,0,1,4,3.54,3.63,3.63,0,0,1,.46,4.52,3.57,3.57,0,0,1-4.36,1.11c-.68-.28-1.43-.42-2.1-.73-2.62-1.22-3.88-.29-4.43,2.44a134.21,134.21,0,0,0-1.72,37.16c.25,3.09.79,6.15,1,9.24.12,1.65-.21,3.44-2.18,3.82a4,4,0,0,1-4.53-2.39c-1.72-3.31-2-7-2.18-10.5-.78-15.08-.45-30.09,4.86-44.51.73-2-.17-3.33-1-4.82a18.92,18.92,0,0,1-3.05-11.34c.5-6,3.42-10.49,9.07-12.49,4.95-1.76,5.79-5,4.72-9.7-3.92-.48-7.74.68-11.62,1.32-4.51.75-6.28-.9-5.25-4.76a3.45,3.45,0,0,1,2.79-2.68c2.42-.49,4.84-1.3,7.28-1.37,8-.24,15.88-1.35,23.86-.89a27,27,0,0,1,2.94.41,3.11,3.11,0,0,1,2.8,3.34,3.21,3.21,0,0,1-2.5,3.27c-3.84,1.39-7.84,1.17-12.06,1.34-.39,1.75-.79,3.51-1.26,5.62,7.16.49,15-3.54,20.86,3.48-2,2.68-4.83,3.07-8.15,2.86,2.25,5.32,2.08,10.1-1.74,14.39-1.05,1.17.18,2.07.7,3,1.36,2.33,3,4.43,3.54,7.26,1.18,5.83-.54,10.36-5.35,13.58-4.4,3-5.83,7-6,12.08a46.65,46.65,0,0,0,11.39,33.36,24.63,24.63,0,0,1,2.3,3.39c.91,1.55,1.59,3.26.18,4.8s-3.48,1.27-5.22.59a7.84,7.84,0,0,1-2.9-2.27c-7.12-8.35-11.56-17.87-12.49-28.92a53.9,53.9,0,0,1,1.23-18.81c1.05-3.93,3-7.1,6.58-9.05,3.27-1.79,3.81-4.6,3.41-7.92a6.62,6.62,0,0,0-5-5.51C402.07,259.76,399.48,262,396.32,263.53Zm-5.52-4.06c2.3-1.28,4.66-2.57,7-3.92a1.79,1.79,0,0,0,.73-2.8,24.16,24.16,0,0,1-2.84-8c-3.48-.62-5.6,1-7.05,3.71C386.88,251.75,387.72,256,390.8,259.47Zm19.8-18.85-8.68,1.54c.79,4,4.49,6,4.42,10.61C410.43,249.13,406.32,243.64,410.6,240.62Z" transform="translate(-135.6 -165.19)"/><path class="cls-1" d="M388.84,559.13c-3.9-13.92-8.26-27.39-12.22-41.26q-6.47,20.57-12.92,41.07a6.4,6.4,0,0,1-1.28.2c-3.57-.28-8,1.5-10.48-.7-2.21-2-2.33-6.32-3.33-9.63q-6.53-21.48-13-43c-.24-.81-.35-1.67-.57-2.75h12q5,19.15,10,38.53c.27,1.06,0,2.48,1.64,2.38,1.33-.08,1.14-1.33,1.42-2.27,3.65-12.23,7.4-24.43,11-36.68.49-1.67,1.23-2.3,2.84-2.16a1.61,1.61,0,0,0,.38,0c8.76-.31,8.83-.33,11.23,8.12,2.95,10.34,6.09,20.63,8.41,31.14a2.84,2.84,0,0,0,1.75,2.24c3.95-13.79,7.85-27.43,11.82-41.27h11.7L404,549.38c-.3.93-.59,1.88-.91,2.81-2.42,7-2.42,7-9.79,6.94Z" transform="translate(-135.6 -165.19)"/><path class="cls-1" d="M524.17,559H513.08q-1.33-20.12-2.65-40.1c-1.86-.79-2.17.64-2.63,1.76-4.84,11.68-9.88,23.27-14.38,35.08-1.81,4.73-5.44,2.14-8.17,3-2.2.67-2.56-1.51-3.16-3.09-4.69-12.14-9.86-24.08-13.95-36.45a8.68,8.68,0,0,0-.66-1.24h-1.11c-1,13.61-2,27.22-2.95,41H452.84c1.61-18.48,3.22-37,4.88-56,4.3,0,8.62,0,12.94,0,1.55,0,1.66,1.15,2.07,2.19C478,518.18,484,531,487.8,544.57c1.45.18,1.53-.86,1.76-1.61,4-13.1,10.05-25.34,15.09-38,.44-1.11.85-2.17,2.56-2.1,4.1.15,8.21,0,12.55,0C521.23,521.59,522.68,540.05,524.17,559Z" transform="translate(-135.6 -165.19)"/><path class="cls-1" d="M613.93,617.37a4.79,4.79,0,0,0,5.71.94A222.73,222.73,0,0,0,641,607.91c.82-.45,1.56-.8,1.3-2.13A28.83,28.83,0,0,0,631.24,608,42.5,42.5,0,0,1,617.48,611c-3,.24-3.53-1.38-3.5-3.91s.21-4.06,3.4-3.93c7.12.28,13.82-2.72,20.92-3a2.52,2.52,0,0,0,2.25-3.27c-.38-1.75-1.54-1.78-3.15-1.43-4.59,1-9,2.75-13.69,3.19-2.49.24-4.85.1-5.77-2.8-1-3.08.57-4.7,3.74-4.18,4.27.71,8.23-1.7,12.51-1.27A30.55,30.55,0,0,0,639,590a3.71,3.71,0,0,0,3.41-2.24c1.76-3.46,4.51-3.61,6.28-.25,1,1.93,2.24,2.28,4.14,2.28,8.09,0,16.21-.49,24.19,1.43,1.07.26,2.37.09,2.33,1.76a2.46,2.46,0,0,1-2.12,2.3,20.07,20.07,0,0,1-9.62,0c-3.73-.81-5.6.84-6.55,4.64,8.07,1.25,15.8,3.77,23.85,1-.46,5.37-4.84,8.8-12.4,9.68,1.23,2.53.77,5,.06,7.56a32.94,32.94,0,0,0-.31,14.75c.19,1.09.16,2.23.24,3.34.21,2.94-1.5,3.61-3.78,2.74-11.66-4.45-23.28-3.87-34.92,0-1.09.36-2.29.7-3.14-.2s-.61-2.3-.07-3.47a32.84,32.84,0,0,0,2.82-16.13c-2.93.43-4.93,2.45-7.31,3.64-1.78.9-3.44,2-5.26,2.84-2.29,1-5,3.13-7.12.56S611.92,620.7,613.93,617.37Zm51.93,13c.74-3.86.72-4.28-1.15-4.57-8.15-1.26-16.28-1.42-24.34.77-1.76.48-2.43,1.55-1.89,4.1C647.56,628.05,656.75,629.39,665.86,630.37Zm1-10.57c.75-2.48,0-3.49-2.28-3.81-7.46-1-14.84-.13-22.22.75-2.92.34-3.26,1.54-1.6,3.62C649.58,619,658.27,619.84,666.89,619.8Zm-18.94-9c7.65-2.95,15.22,1.42,23.51.34C664.08,606,652,602.92,648,610.78Zm8.7-15.47a7.29,7.29,0,0,0-5.65-.49,3.15,3.15,0,0,0-2.12,3.86c.38,2.05,2.25,1,3.39.63A6.12,6.12,0,0,0,656.65,595.31Z" transform="translate(-135.6 -165.19)"/><path class="cls-1" d="M463.74,594.9c5,.4,9.49-.64,13.94-1.55,2.44-.5,2.32-3.19,2.94-5.14.53-1.63-.09-4.33,2.45-4.31,2.19,0,1.92,2.53,2.36,4.11a45.39,45.39,0,0,1,.83,4.57q10.08,1.2,20.22,2.4a18.48,18.48,0,0,1,2.24,0c2.24.53,4.64,1.32,4.5,4.09-.14,2.56-2.44,3.43-4.64,3.36-4.85-.15-9.69-.54-14.52-1-2.63-.24-5.21-.48-7.8.37-.66,1.3-.3,2.66-.39,4.16,3.07,1.09,6.17.87,9.22.92a35.28,35.28,0,0,1,12.75,2.31c1.63.65,4,.89,3.57,3.49a4.43,4.43,0,0,1-4.87,3.77A96.25,96.25,0,0,1,495.11,615a70.27,70.27,0,0,0-7.09-.44c-3.19-.23-3.16,2-3.47,4.13-.35,2.38,1.07,3,3,3.29,6.26.8,12.58,1.3,18.76,2.49,4.06.79,7.77,0,11.66-1.16-2.34,12.44-8.43,16.13-18.32,10.65-5.26-2.91-10.81-3.37-16.41-3.61-10.57-.46-21,1.4-31.36,3.18-2.73.47-4.74.5-4.95-3-.27-4.48,1.05-5.75,4.48-6.42a151.54,151.54,0,0,1,23.26-2.44c3.19-.12,3.26-2.75,3.21-4.95-.06-2.44-2.11-1.9-3.68-1.87-4.52.09-8.66,2.17-13.11,2.56-2.44.22-5.2.72-6-2.66-.74-3.16,1.24-4.72,3.89-5.28a66.2,66.2,0,0,1,12.15-1.69,33.46,33.46,0,0,0,5.53-.63c2.19-.41,2.55-1.56,2.44-3.39-.12-2-1.51-2.12-2.92-1.93-5.24.7-10.62.77-15.48,3.31a39.4,39.4,0,0,1-7.53,3.11c-1.94.55-4,.64-5.2-.8s.31-3.23,1.34-4.61c3.28-4.42,7.82-7.95,9-13.83.38-1.83,2.11-1.27,3.25-.18C463.21,590.36,463.34,592.54,463.74,594.9Z" transform="translate(-135.6 -165.19)"/><path class="cls-1" d="M472.14,203c-3.16-1.13-8.35,1.45-8.33-3.69,0-4.81,5-4.09,8.56-4.35,1.14-3.86.29-7.8,1.48-11.5.75-2.35,1.82-3.79,4.41-3.53,3.05.31,2.47,2.69,2.39,4.57-.14,3.34-.49,6.66-.77,10.06h25.51c0-4.41-.07-8.34,0-12.27.06-2.11.09-4.48,3.18-4.51,2.89,0,3.35,2.08,3.58,4.3a41.1,41.1,0,0,1,.56,6.32c-.2,3.67-.24,6.88,4.59,7.52a2.85,2.85,0,0,1,2.25,3.08c-.1,1.68-1.48,2.16-3,2.21-3.53.11-4.47,1.91-4.32,5.31a92.79,92.79,0,0,1-.8,20.12c-1.66,9.63-3.83,11.92-13.32,13.8a34.19,34.19,0,0,1-12.27.07c-9.92-1.67-13.84-8.19-13.79-18C472.17,216,472.14,209.52,472.14,203Zm7.48,2.79c-.05,7.51-1.44,15,1.45,23.11,2.47-4.28,4.42-7.66,6.34-11,.29-.5.64-1,.26-1.7C485.61,212.21,483.31,208.51,479.62,205.74Zm26.58-.84c-.87.11-1.23.06-1.33.19-1.22,1.72-2.43,3.45-3.6,5.2-4.7,7.11-4.69,7.11.3,14,.59.8,1.05,1.77,2.29,1.47s1.21-1.53,1.27-2.41C505.53,217.26,505.84,211.2,506.2,204.9Zm-18.88,27.35c3.31,1.68,6.46,1,10.26.59-1.2-3.25-2.2-6.67-4.81-7.49-2.44-.77-2.76,3.18-4.37,4.75A8.23,8.23,0,0,0,487.32,232.25Zm5.5-21.49c1.9-3.33,4.91-5.18,5.05-8.86h-9.66C487.92,205.68,490.82,207.47,492.82,210.76Z" transform="translate(-135.6 -165.19)"/><path class="cls-1" d="M795,502.87c4,0,7.48.13,10.94-.05,2-.1,2.57,1.26,3.37,2.41,8.63,12.46,18.38,24.15,26.07,37.27.22.38.71.6,2,1.63-1.11-14.16-.58-27.46-.73-41h10.29v56c-3.26,0-6.48.07-9.69,0-3-.08-3.82-3-5.07-4.8-8.29-12.11-17.71-23.44-25.06-36.2-.29-.5-.69-1-2-.67,1.2,13.63.49,27.37.8,41.41H795Z" transform="translate(-135.6 -165.19)"/><path class="cls-1" d="M594.05,559V503.53c7.84-.68,15.67-2,23.62-1.12,4.66.53,9.36.87,13.89,2.39,12.12,4.08,18.34,12.28,18.47,24.59.13,13.26-6.59,23.14-18.91,27.33-10.44,3.55-21.27,3.47-32.11,2.86C597.41,559.49,595.81,559.21,594.05,559Zm11.33-6.66c3.8,0,7,.21,10.27,0,11.4-.87,20.3-5.88,22.12-18.45,1.08-7.43-1-17.27-10.65-21.56-6.54-2.9-13-2.43-19.68-2.5-1.65,0-2.07,1.06-2.07,2.48C605.38,525.48,605.38,538.69,605.38,552.34Z" transform="translate(-135.6 -165.19)"/><path class="cls-1" d="M757.66,501.93c8.8.19,18,2.64,23.86,11.39,6.73,10,6.86,20.81,2,31.53-4.51,10-13.33,14-23.66,14.89-6.43.54-12.8.08-19-2.54-12-5.08-16.93-18.4-15.66-29.4C727.26,509.88,741,501.84,757.66,501.93Zm16.78,29.16a26.42,26.42,0,0,0-.8-8.11c-2.44-7.84-8.83-12.81-16-13.35-10.89-.83-16.79,5.83-19.07,12.67a26.4,26.4,0,0,0-.78,15c3.48,13.81,15.8,18.4,26.32,13.28C771.85,546.8,774.69,539.57,774.44,531.09Z" transform="translate(-135.6 -165.19)"/><path class="cls-1" d="M557.85,200.45c.51,9.76-5,13.24-13.07,14.22-4.3.53-8.62.55-12.94,1.2-5.77.88-6.53,3.15-6.75,8.09-.44,9.58-.19,19.21.2,28.81.21,5.12.42,10.24.14,15.33-.82,15.3-.25,30.68-2.08,45.93-.53,4.43-1.5,8.81-2.16,13.22-.4,2.61-1.79,3.7-4.37,3.37s-3.44-1.85-3.2-4.17c.66-6.31,1.14-12.63,1.65-18.95.65-8.08,1.09-16.15,1.45-24.25.64-14.08,1.18-28.16,1.06-42.25-.07-7.47-.89-14.93.22-22.39.58-4,2.72-6.31,6.38-7.91,6.15-2.68,12.71-2,19.06-2.84,5.26-.71,7.77-3.14,7.64-8.12-.12-4.19-3-6.71-8.06-6.92-4.74-.19-9.38,1.09-14.16.81-7.67-.46-11.82-4.92-10.46-11.66.37-1.86.89-3.85,3.29-3.9s2.8,2,3.2,3.82c.9,4.09,2.74,5.17,6.83,4.44a49.86,49.86,0,0,1,15.62-.63c6.21.86,9.89,3.31,10.5,12.5C557.89,199,557.85,199.7,557.85,200.45Z" transform="translate(-135.6 -165.19)"/><path class="cls-1" d="M508.89,329c-4.25,1-6.22-1.4-7.13-4.6A124.79,124.79,0,0,1,497.13,301c-1-11-.76-21.92-.7-32.88,0-3.47.44-6.94.69-10.72a60.05,60.05,0,0,0-12.54.29A151,151,0,0,1,486,278.06c.08,15.6-4,30.44-7.83,45.34a11.85,11.85,0,0,1-4.15,6.08,2.74,2.74,0,0,1-2.75.7c-1.14-.42-1-1.53-1.13-2.53-.42-3.71.7-7.22,1.84-10.58,4.51-13.31,6.41-27.05,6.83-41,.19-6.16-.86-12.35-1.34-18.41l-7.86-.45c-1.83-.11-3.1-.88-3.28-2.87a3.33,3.33,0,0,1,2.84-3.8,26.17,26.17,0,0,1,5.9-.78q15.92-.1,31.81,0a13.07,13.07,0,0,1,6.77,1.57,3.13,3.13,0,0,1,1.52,3.51,2.74,2.74,0,0,1-2.84,2.44c-1.24.08-2.49.21-3.73.18-4.7-.12-5.21.13-5.29,4.8-.33,18.91-.37,37.79,4.74,56.25C508.92,321.81,509.71,325.24,508.89,329Z" transform="translate(-135.6 -165.19)"/><path class="cls-1" d="M199,617.93c-.65-3.49,1.3-5.92,3.68-7.95,3.2-2.72,3.85-6.21,3.69-10.05a4.29,4.29,0,0,0-3-3.92,6.85,6.85,0,0,1-3.5-2.67c-1.06-1.65-1-3.19,1.36-3.53,8.72-1.26,17.34-3.19,26.15-3.73a4.72,4.72,0,0,0,3.94-2.25c2.09-3,4.85-3.13,6.44,0a3,3,0,0,0,3.14,1.82c6.45.11,12.85.38,19.08,2.47a13.11,13.11,0,0,0,6.27.18c1.15-.2,2.42-.33,3.33,1,1,1.52.28,2.74-.52,3.75-2.47,3.12-4.91,6.22-6.37,10a7.41,7.41,0,0,0-.59,4.34c.66,3.33-.3,4.53-3.9,4.42s-7.19-.71-10.79-.94c-10.18-.63-10.25-.54-10.25,9.4,0,4.12,0,8.24,0,12.36,0,3.39-2.35,4.09-4.91,4.29-2.21.18-2.58-1.53-2.52-3.3.19-6,.21-12,.69-17.94.3-3.66-1.1-4.65-4.43-4.14-8,1.23-16,2.27-23.31,6A3.94,3.94,0,0,1,199,617.93Zm47.51-25.14c-10-.42-9.37-.7-9.35,8.18,0,.12,0,.24,0,.37-.08,1.45.77,2,2.06,2,4.71.21,9.42.53,14.13.57,2.6,0,6.18-7.08,4.91-9.3-.53-.91-1.37-.9-2.22-1.08A36.12,36.12,0,0,0,246.48,592.79Zm-15.38.89A38.17,38.17,0,0,0,218.75,595c-4.89,1.21-5.77,2.34-6.44,7.16-.36,2.56.47,3.51,2.87,3.27,4.56-.48,9.13-1,13.67-1.61a2.31,2.31,0,0,0,2.27-2.47C231,598.92,231.1,596.46,231.1,593.68Z" transform="translate(-135.6 -165.19)"/><path class="cls-1" d="M317.29,503.05h11.44c0,5.73,0,11.41,0,17.08,0,6.11,0,12.23-.16,18.33-.44,13.62-8.85,20-20.53,21.22-5.23.54-10.66.81-15.91-1-9.05-3.16-14.21-9.42-14.46-19.14-.31-12.07-.07-24.15-.07-36.42h11.26c0,7.78-.13,15.59,0,23.39.11,5-.51,9.91.59,14.87,2.13,9.6,8.48,11.89,17.1,11,6.26-.68,10.68-6.49,10.71-14q0-15.72,0-31.43Z" transform="translate(-135.6 -165.19)"/><path class="cls-1" d="M587.58,558.84a9.59,9.59,0,0,1-.94.28c-10.93.34-10.93.34-15.19-10.43-2.39-6-2.39-6-8.8-6-4,0-8,.16-12,0-2.43-.13-3.5.76-4.23,3-1.22,3.76-3,7.34-4.15,11.11-.61,1.95-1.53,2.53-3.44,2.44-2.86-.13-5.72,0-8.52,0-.74-1.5.19-2.57.61-3.64,6.45-16.49,13-32.92,19.36-49.45,1-2.63,2.34-3.34,4.91-3.19,3.35.19,6.72.05,10.33.05ZM557.9,513c-2.76,7.49-5.43,14.73-8.26,22.43,4.24.77,8.06.32,11.83.38,4.95.08,5.54-.85,3.77-5.31-1.67-4.24-3.28-8.5-4.93-12.74C559.73,516.29,560.05,514.35,557.9,513Z" transform="translate(-135.6 -165.19)"/><path class="cls-1" d="M592.19,245.68c3.38.89,5.48-.73,7.57-2.31,1-.76,1.83-1.69,2.83-2.43,1.26-.93,2.62-1.49,4.06-.25a3.75,3.75,0,0,1,1.17,4.35,8.06,8.06,0,0,1-2.88,3.82c-3.89,3-8.25,5.33-13.23,5.26-3.22-.05-4,1.49-4.58,4.05-1.3,6.12-1.37,12.33-1.6,18.55-.47,12.33-1,24.66-.45,37,.22,4.84.87,9.66,1.23,14.49.2,2.6-.06,5.66-3.13,5.88s-4.82-2.44-5-5.38c-.64-8.94-1.49-17.9-1.46-26.85,0-12.33.83-24.65,1.32-37a13.17,13.17,0,0,1,.3-2.58c1.21-4.93,2.13-9.15-1.77-14.15-5.47-7-1.95-18.15,6.38-24.55,3.05-2.35,6.24-4.67,10.16-5.22,1.46-.2,3.79-1.16,4.45,1.32.58,2.18-.46,3.62-2.63,4.67a27.53,27.53,0,0,0-11,8.76c-2.86,4.1-2.94,7.76,0,10.82,2.88-4.8,5.7-9.59,9.9-13.29a50,50,0,0,1,5.26-4.15c1.55-1,3.59-1.3,4.83.19s.3,3.33-1,4.62a57.27,57.27,0,0,0-9.9,12.55C592.74,244.38,592.54,244.94,592.19,245.68Z" transform="translate(-135.6 -165.19)"/><path class="cls-1" d="M348,628.67c-.18,1-.37,2.2-.64,3.4-.91,4.13-1.9,4.66-5.3,2.35-2.82-1.92-6-2.3-9.16-2.56-10.17-.86-20.37-1.48-30.59-.2a29.28,29.28,0,0,0-7.47,2.08c-3.11,1.27-6.93-.76-9.62,2.44-.57.68-1.42-.7-1.75-1.75-1.19-3.75-.13-7.43.24-11.1,1-10,2.5-20-1.16-29.82a9.4,9.4,0,0,1-.28-4.79c.38-2.64,1.48-3.83,4.26-2.37s6,.72,8.82.26c7.91-1.3,15.87-1.38,23.83-1.48a261.14,261.14,0,0,1,28.52.81c3.16.31,3.17,2,2.73,4.37-.6,3.19-2.72,5.74-3.27,9.05-1.48,8.88,0,17.64.48,26.44C347.72,626.67,347.89,627.53,348,628.67Zm-6.4-4a3.72,3.72,0,0,0,.34-.88c0-9.32-.77-18.66,1.23-27.91.5-2.36-1.49-3.1-3.37-3.7-3.25-1-6.63-.93-9.95-1.09a147.35,147.35,0,0,0-35.26,2.27c-3.61.7-5,2.91-5,6.22.09,7.86-.41,15.69-.72,23.54-.2,4.95.32,5.17,5.31,3.91,12-3,24.09-4.68,36.5-2.86C334.23,624.67,337.8,625.64,341.63,624.65Z" transform="translate(-135.6 -165.19)"/><path class="cls-1" d="M717.59,504.85l-2.66,7.08A34.11,34.11,0,0,0,700,509.69a18.61,18.61,0,0,0-2.6.2c-3.92.83-7.4,3.69-7.43,6.46,0,3.73,2.44,5.88,5.57,7.22,4.2,1.8,8.56,3.25,12.75,5.08,4.76,2.07,9.17,4.75,11.16,9.88,2.73,7-.4,14.61-7.73,18-10.57,4.95-21.46,4.15-32.37,1-1.84-.52-1.92-1.81-1.52-3.21.48-1.65,1.19-3.24,1.94-5.25,5.73,2,11.53,3.59,17.67,3.23a16.39,16.39,0,0,0,7.13-2c5.11-2.85,5.48-8.68.9-12.33-2.88-2.29-6.37-3.25-9.74-4.42-4.11-1.43-8.11-3-11.6-5.67-8.07-6.2-7.49-16.78,1.27-22,7.55-4.52,15.81-4.63,24.17-3.5C712.22,502.83,715,503.05,717.59,504.85Z" transform="translate(-135.6 -165.19)"/><path class="cls-1" d="M562.17,334.28c-3.63,1-6.08-.8-7.92-3.46-8.37-12.07-14.83-25.05-17.29-39.64-3-17.56-5.17-35.2-4.54-53.07a33,33,0,0,1,1.39-9.18c1.31-4,4.09-5.58,8.1-4.41,5.59,1.64,10.21,4.71,12.72,10.17,3,6.5,5,13.21,3.42,20.54-.39,1.8,0,3.78-.35,5.58s-.37,4.83-3.31,4.55c-2.62-.25-3.37-2.56-3.32-5,.07-3.74.06-7.48.12-11.22a23.85,23.85,0,0,0-2.35-10.81,9.86,9.86,0,0,0-4.38-4.94c-3.48-1.72-5.15-.83-5.27,3.09-.67,21.51,1.61,42.71,7.78,63.33,2.77,9.26,6.45,18.3,13.24,25.62C562.53,327.89,562.72,330.91,562.17,334.28Z" transform="translate(-135.6 -165.19)"/><path class="cls-1" d="M405.43,613.53c10.44-.94,20.77,4.39,32.43.19-2.17,4.68-3.93,8.31-7.12,10.87-2.66,2.13-5.68,1.25-8.49,0-5-2.24-9.91-4.48-15.45-5.19-3-.38-4.15.34-4.09,3.43.06,2.82.49,5.67-.66,8.47-1.88,4.58-5.2,6.39-10,5.22-2.42-.6-5,.09-7.36-.94-1.3-.56-3-.45-3.78-2.36,3.43-.76,6.76-1.43,10.06-2.25,3.71-.91,7-5.91,6.51-9.61-.21-1.72-1.4-2-2.66-1.89-7.4.61-14.78,1.39-21.89,3.77-1.4.47-2.84.87-4.27,1.24-4.29,1.12-6.32-.49-6.39-5,0-2.34.28-4.09,3.35-2.92,2,.78,3.91-.48,5.83-.79a137.89,137.89,0,0,1,18.12-2.08c1.73-.05,4.37,1.2,4.84-1.84.32-2.1-3.48-4.81-6-4.26a43.2,43.2,0,0,0-5.58,2c-3.73,1.36-6,.47-6.63-2.73-.41-2.18-.83-3.61,2.85-4.2,5.8-.93,11.47-2.85,17.42-3.46a45.74,45.74,0,0,1,15.57.69,21.36,21.36,0,0,0,3.31.38c1.55.12,3.4-.44,4,1.8.66,2.59-1.4,3.13-3,3.81a74.17,74.17,0,0,0-9.51,4.15C405.37,610.84,404.52,611.55,405.43,613.53Zm-8.14-8.39a6,6,0,0,0,3,4.25c1.39-1.61,5.11-1.39,3.55-5.07C401.45,603.61,399.49,604.42,397.29,605.14Z" transform="translate(-135.6 -165.19)"/><path class="cls-1" d="M560.79,612.46c-2.12-5.06-4.63-6.08-9.28-4a17,17,0,0,1-4.18,1.49c-3.61.58-6-2.06-5.24-5.6.19-.93.54-1.72,1.55-1.84,8-1,15.69-3.57,23.84-3.8,5.43-.16,10.55,1.74,15.92,1.6a1.9,1.9,0,0,1,2.17,1.62,2.52,2.52,0,0,1-1.34,2.84c-2,1-4.05,1.88-6.11,2.72a20.23,20.23,0,0,0-8.2,5.29c11-.19,21.65,4.83,32.81,1.39-.24,8.37-7.31,13.14-14.62,10.17-5-2-9.91-4.37-15.41-5.08-2.72-.34-3.72.44-3.67,3.06.06,3.09.5,6.22-.87,9.2-2.07,4.47-5.3,6-10.21,4.86-2.29-.54-4.72.09-7-.81-1.37-.54-2.84-.79-4-2.24,2.59-1.29,5.37-1.18,8-1.66,5.29-1,8.32-4.31,8.53-9.59.07-1.9-.86-2.84-2.7-2.68-7.54.63-15,1.51-22.27,3.92-1.29.43-2.66.65-3.9,1.18a4.29,4.29,0,0,1-5.14-1c-1.6-1.72-.87-4-.84-6.11,0-.85.84-1.2,1.65-1.11,6.29.69,12.17-2,18.36-2.25,2.74-.11,5.47-.31,8.21-.37C558.24,613.72,559.71,614.06,560.79,612.46Zm6.67-8.4c-1.07.67-3.29-.25-3.52,2-.16,1.64,1,2.47,2.6,2.38,1.78-.1,3.65-.68,3.87-2.67C570.59,604.16,568.86,604.26,567.46,604.06Z" transform="translate(-135.6 -165.19)"/><path class="cls-1" d="M860.69,602.75c6,1.44,10.71-1.86,15.39-4.5,6.81-3.84,13.41-8.09,18.12-14.65,1.84-2.56,4.54-2.34,7.75,0,4.25,3.06,7.39,7.37,11.8,10.25s8.5,6,14,6.71a13.54,13.54,0,0,1,4.52,1.68c2.1,1.13,4.16,2.07,7.55.68a19.33,19.33,0,0,1-7.5,8.6c-3.69,2.28-7.09,1.17-10.42-1-3-2-5.13-5-8-7.65-1.61,3.13-4.29,3.36-7.27,3.41-5.73.09-11.48-.32-17.19.71-3.44.63-6.8.4-8.18-4.19-3.58,3-6.6,5.78-9.87,8.22-3.66,2.74-7.6,2.57-9.26-.06C861.25,609.56,860.49,605.13,860.69,602.75Zm46.9-5.47c-1.77-4.06-5-5.32-7.65-7.18a2.41,2.41,0,0,0-2.13-.07c-3.9,2.25-7.61,4.78-10.41,8.88Z" transform="translate(-135.6 -165.19)"/><path class="cls-1" d="M727.74,584.8c.55,2.18,0,4.21-1.13,5.2-4.63,3.9-4.3,9.22-4.61,14.35-.48,8.08.67,16.21-.78,24.26-.11.61-.08,1.25-.23,1.84-.25,1-.72,2-1.89,2s-1.39-1-1.81-2c-1.08-2.39-.11-5-.91-7.52-2.48-.74-4.5.82-6.56,1.58-3.25,1.2-6.32,2.9-9.49,4.34-1.58.71-3.51,2.68-4.85.33-1.22-2.14-1.71-5.68.73-6.78,6.28-2.86,5.35-8.14,5.5-13.2.09-2.62,0-5.25.13-7.86.21-3.47-.47-6.16-4-8-2.49-1.29-2.3-4.19-2.06-6.71a1.53,1.53,0,0,1,1.77-1.52c6.89.74,13.48-2.23,20.41-1.51C721.18,584,724.41,584.14,727.74,584.8ZM705.9,605.55c3.41,3.31,6.84,0,10,.49,1.49.21,1.7-1.71,1.16-3.13C712.51,602.26,710.37,602.72,705.9,605.55ZM717,613.46c-8-1.07-11.81.66-10.54,5C709.59,616.25,714.49,618.07,717,613.46Zm-9.64-17.23c2.64-.29,5.08-.45,7.47-.86.84-.14,2-.47,1.81-1.87s-1.2-1.46-2.21-1.38c-1.72.15-3.41.56-5.12.6C707,592.77,706.61,593.9,707.35,596.23Z" transform="translate(-135.6 -165.19)"/><path class="cls-1" d="M778.43,600.38c1.37,1.59,2.88,1.55,4.62.61,9.78-5.26,20.41-9.17,28-17.94,2.42-2.81,5.07-1.52,7.14.42,7.38,6.94,16.15,11.36,25.64,14.43,3.84,1.23,6.83,4.75,11.34,4-.77,3.63-6.29,7.7-10.66,8.45-6.38,1.09-7.59-5.1-11.63-8-1.62,4.77-5.5,3.88-9.12,3.84-7-.09-13.91-.07-20.82,1.35-2.55.52-5.75,1.21-7-2.92-.45-1.46-2.37-.68-3.44.32a26.5,26.5,0,0,1-6.4,4.45c-5.29,2.69-7.53,1.75-8.56-4C777.23,604,776.92,602.25,778.43,600.38ZM826.94,598c-2-4.2-10.62-10.19-13.24-9.58-5,1.18-12,7.25-11.91,10.88C810,597.73,818.27,597.89,826.94,598Z" transform="translate(-135.6 -165.19)"/><path class="cls-1" d="M724.46,622.87c9,.79,13.15-2,16-10.56-2.12-1.81-4.22.21-6.31.15-.81,0-1.61.6-2.45.79-2,.44-4.3,1.78-5.21-1.31s.69-5.25,3.59-5.82c3.4-.67,6.78-1.43,10.18-2.11,1.44-.29,2.33-1.07,2.12-2.54s-1.63-1.17-2.7-1.26c-3.19-.26-5.92,1.79-9.09,1.79-2.19,0-4.1-.44-4.67-2.79s-.5-4.27,2.82-4.29a10,10,0,0,0,7.06-2.45c-.28-1.9-1.56-2.93-2.72-4-1.88-1.83-1.06-3,1-3.85,4.35-1.8,7.25.11,7.43,4.86,0,1,.09,1.94.15,3.17,3.75.27,7.31.7,9.76-2.87.61-.89,1.46-1.58,1.06-3-.56-1.91,1.18-2.12,2.4-2.54,1.41-.49,3-1,4.22.14s0,2.37-.5,3.44-1.41,2.3-2.11,3.41c1.9,2.45,4.73,1,6.92,2,1.19.52,2.77.41,2.84,2.37.07,1.64-1.14,2-2.2,2.64a10.18,10.18,0,0,1-7.14,1.14,17.41,17.41,0,0,0-8.12,0c-1.17.34-2.18.64-2,2.16s1.09,1.72,2.39,1.75c4.1.11,8.23-.45,12.3.51,1.3.31,3,.22,3.15,2s-1,2.87-2.58,3.7-3.41.44-5.11.56a43.9,43.9,0,0,1-4.86.14c-4.21-.14-6.88,1.16-7.68,5.89-.68,4-2.86,7.64-5.08,11.09-2.4,3.71-6.54,6-9.56,5.3S724.85,628.45,724.46,622.87Z" transform="translate(-135.6 -165.19)"/><path class="cls-1" d="M910.85,618.68c0,1.38,1,2.21,1.86,3.12,2,2.24,4,4.4,6,6.67,1.35,1.56,3.35,3.28,1.87,5.47s-4.11,2-6.4,1.11c-9.65-3.92-19.52-2.66-29.39-1.42a79.11,79.11,0,0,0-8.37,1.58,2.63,2.63,0,0,1-3-.86,2.49,2.49,0,0,1,.78-3.32c1.14-.95,2.41-1.74,3.63-2.6,3.13-2.23,6.07-4.63,7.58-8.54-1.75-1.3-3.54-1-5.16-.67-2.89.56-5.51.28-6.23-2.89-.77-3.42,1.85-3.58,4.51-4.26,11.9-3.07,23.82-3,35.86-1.41,1.81.24,3.19,1.4,4.93,1.57s1.91,1.34,2,2.65a2.59,2.59,0,0,1-1.94,2.78,10.9,10.9,0,0,1-6.61.12C911.89,617.57,911.37,618.09,910.85,618.68Zm-20.38,7.24c5.37-1.23,10.58.28,15.88-1.32-2.29-3.21-2-8.48-7.79-7.79C894.52,617.29,891.66,620.27,890.47,625.92Z" transform="translate(-135.6 -165.19)"/><path class="cls-1" d="M794.07,613.73c13.87-2.68,26.95-3.72,40.15-2.37,4.41.46,5.25,1.94,2.54,5.67a12.52,12.52,0,0,0-1.66,12.32c1.44,4.1-.3,6.15-4.56,5-11.86-3.06-23.55-2.44-35.22.93-2.94.85-3.93-.24-3.2-3.19.21-.84.49-1.66.72-2.49C794.33,624.35,798.86,619.4,794.07,613.73Zm7.17,13.06c8.08-1.23,16.14-1.2,24.2-1.29,2.44,0,2.86-1.76,2.94-3.88s-.68-3.32-2.91-3.34c-6.22,0-12.41-.22-18.56,1.3C803,620.53,801.06,622.43,801.24,626.79Z" transform="translate(-135.6 -165.19)"/><path class="cls-1" d="M394.82,591.61c.8-1.78-.18-2.69-1.16-3.74s-2.61-2.28-1.89-4.12c.49-1.24,1.81-1.49,3.16-1.49,2,0,4.11-.38,5.19,1.94a18.11,18.11,0,0,1,1.11,3.15c.33,1.35-.63,3.55,1.32,3.81,2.35.33,5,1,7.18-.73,1.87-1.54,4.28-3.09,1.72-6.24,2.4-.66,4.49-1.44,6.73-1.05,1.58.27,3.28.53,3.73,2.55a3.36,3.36,0,0,1-1.86,3.75c-1.31.74-1.86,1.52-1.43,3,4,.61,8,1.17,12,1.86,4.6.78,5.48,3.24,2.65,6.91a32.12,32.12,0,0,0-2.82,4.39c-.95,1.76-2.27,2.35-4,1.42s-1.94-2-1.07-3.91c2.19-4.76,2-5.35-3.43-6-14.76-1.75-29.49-2-44,2.37-3.78,1.15-6.75,3-7.93,7a4.44,4.44,0,0,1-1.9,2.66c-2.26,1.42-3.48.87-3.66-1.81-.22-3.16.4-6.3-1.36-9.42-1-1.84,1-2.33,2.7-2.21a27.42,27.42,0,0,0,13.57-1.94c-.17-2.57-2.6-3.46-3.93-5.15-.71-.89-1.54-1.66-1.24-2.94.36-1.57,1.86-1.77,2.94-1.82,5.53-.27,7.69-1.1,9.09,5.79.54,2.63,1.82,3.59,4.36,3C392.09,592.36,393.51,592,394.82,591.61Z" transform="translate(-135.6 -165.19)"/><path class="cls-1" d="M545.06,593.77c.39-2.4-1.85-3.21-3-4.62-.93-1.08-1.87-2-1.45-3.58.47-1.75,2.12-1.54,3.35-1.7,5.87-.81,7.12.08,8.68,5.9.34,1.3.28,2.87,2.14,3a9.09,9.09,0,0,0,6.32-1.55c1.23-1-.11-2.23-.95-3.11-1.18-1.27-2.9-2.45-2.11-4.41s3-1.34,4.62-1.48a3.78,3.78,0,0,1,4.17,3c.53,1.77.77,3.63,1.25,6,2.73,0,5.72,1.22,8.44-1.19,1.73-1.54,3.39-3.08,1.14-5.71,2.46-.72,4.54-1.48,6.78-1.2,1.46.18,3,.53,3.42,2.3s0,3.25-1.69,4.11c-1.28.65-2.56,1.21-1.84,3,4.17.63,8.32,1.3,12.48,1.87,3.93.55,6.2,3.74,2.77,6.9-1.24,1.15-2,2.83-2.93,4.29s-1.9,2.73-3.88,1.64-1.65-2.58-1.05-4.21a13,13,0,0,1,.71-1.72c1.22-2.22-.07-3.51-1.91-3.8a122.85,122.85,0,0,0-26.41-1.29,79.36,79.36,0,0,0-20.8,3.72c-3.27,1.09-5.69,2.87-6.81,6.26a6.61,6.61,0,0,1-1.66,2.83c-.76.66-1.81,1.51-3,.93s-1-1.62-1.08-2.61c-.14-3.07.24-6.11-1.24-9.12-1-2,.86-2.4,2.56-2.35C536.46,595.91,541,596.21,545.06,593.77Z" transform="translate(-135.6 -165.19)"/><path class="cls-1" d="M669.37,559H658.5v-56h10.87Z" transform="translate(-135.6 -165.19)"/><path class="cls-1" d="M680.93,183.4c3.27-1.79,6.67-1.63,9.88-1.7,15.05-.34,30.1-1.71,45.16-.18a18.58,18.58,0,0,1,5.72,1.44c1.9.85,2.27,2.54,2,4.39s-1.87,1.81-3.19,1.81c-8.7,0-17.39-.09-26.09-.42-8.18-.32-16.41.42-24.61.71-1.11,0-2.23.28-3.34.26C681.46,189.64,680.37,188.38,680.93,183.4Z" transform="translate(-135.6 -165.19)"/><path class="cls-1" d="M606.73,290.67c-.62,11-2.07,21.8-7.44,31.69-1.29,2.38-2.66,4.47-5.73,4.65-1.85.11-2.81-.54-2.9-2.48a13.72,13.72,0,0,1,1.4-6.11,82.51,82.51,0,0,0,7-30.62c.06-1.84.42-3.56,2.78-3.68,2.14-.12,4,.09,4.22,2.92A26.94,26.94,0,0,0,606.73,290.67Z" transform="translate(-135.6 -165.19)"/><path class="cls-1" d="M628.27,294.15c0-2.25,0-4.49,0-6.73s1.23-3.1,3.26-3.35,3,1,3.41,2.69a25.32,25.32,0,0,1,.7,5.54,77.48,77.48,0,0,0,4.74,25.84c.08.23.33.41.37.63.4,2.63,1.78,5.86-1.71,7.13-3.3,1.19-4.49-1.83-5.49-4.24A67.1,67.1,0,0,1,628.27,294.15Z" transform="translate(-135.6 -165.19)"/><path class="cls-1" d="M748.4,614.26c7.68,2.73,12.93,8.76,20.84,11.21-4.31,3.46-8.29,6.71-13.71,7.41a3.64,3.64,0,0,1-3.47-1.85C748.81,626.05,746.92,620.75,748.4,614.26Z" transform="translate(-135.6 -165.19)"/><path class="cls-1" d="M419.56,533.75h26c.08,2.15.46,4.23-.26,6.54-7.85,0-15.69,0-23.52,0-1.7,0-2.62-.55-2.49-2.35C419.37,536.62,419.46,535.28,419.56,533.75Z" transform="translate(-135.6 -165.19)"/><path class="cls-1" d="M310.27,601.37c-3.94-1-7.63,1-11.47,1.39a16.05,16.05,0,0,1-3.68.33c-1.51-.21-3.42-.33-3.33-2.68.08-1.91.82-3.55,2.79-3.9,11.75-2.13,23.52-4,35.53-2.59,2.22.27,4.46.41,6.65.8,1.36.25,3.5.17,3.25,2.2a3.86,3.86,0,0,1-3.59,3.32c-2.47.18-5,0-7.47,0-2.74,0-5.49-.1-8.23.05-1.26.07-3.55-.92-3.41,1.48.12,2.07,2.26,1.4,3.65,1.44,2.87.06,5.74,0,8.6.06a47.72,47.72,0,0,1,5.18.58c1.32.19,3,.14,2.94,2.09a3.9,3.9,0,0,1-2.64,3.65c-2.05,1-4.54-.5-6.47,1.35.85,4.23,4.66,2.28,6.91,3.38,1.19.59,3.67-1,3.41,1.91-.21,2.39-.79,4.85-4,5a30.79,30.79,0,0,1-5.6-.07,71.79,71.79,0,0,0-31.27,2.5c-3.95,1.19-5.21.2-5.51-3.86-.19-2.57.41-3.51,3.32-3.21,4.61.47,8.9-1.69,13.35-2.58a2.17,2.17,0,0,0,1.64-2.57c-.29-1.49-1.57-1.07-2.73-1a51.51,51.51,0,0,0-9.37,2.13c-2.54.69-5.23.53-5.74-2.26-.47-2.54,1.36-3.75,4.36-4.16,3.86-.54,7.69-1.73,11.57-2.47C309.76,603.56,310.73,603.22,310.27,601.37Zm13.35,9.82c-2.43-1.53-4.54-1.76-6.48-.43-.76.52-.19,1.8.6,2.19C319.89,614,321.71,613.33,323.62,611.19Z" transform="translate(-135.6 -165.19)"/></svg>